<?xml version="1.0" encoding="iso-8859-1"?>
<!-- Generator: Adobe Illustrator 19.0.0, SVG Export Plug-In . SVG Version: 6.00 Build 0)  -->
<svg version="1.1" id="Layer_1" xmlns="http://www.w3.org/2000/svg" xmlns:xlink="http://www.w3.org/1999/xlink" x="0px" y="0px"
	 viewBox="0 0 512 512" style="enable-background:new 0 0 512 512;" xml:space="preserve">
<path style="fill:#2D2D2D;" d="M387.2,512H124.8c-6.4,0-12-5.6-12-12V12c0-6.4,5.6-12,12-12h262.4c6.4,0,12,5.6,12,12v488
	C399.2,506.4,393.6,512,387.2,512z"/>
<rect x="128" y="40.8" style="fill:#FFFFFF;" width="256" height="409.6"/>
<g>
	<path style="fill:#BCBCBC;" d="M288,25.6h-64c-2.4,0-4-1.6-4-4v-2.4c0-2.4,1.6-4,4-4h64c2.4,0,4,1.6,4,4v2.4
		C292,24,290.4,25.6,288,25.6z"/>
	<path style="fill:#BCBCBC;" d="M288,481.6h-64c-2.4,0-4-1.6-4-4v-2.4c0-2.4,1.6-4,4-4h64c2.4,0,4,1.6,4,4v2.4
		C292,479.2,290.4,481.6,288,481.6z"/>
</g>
<rect x="160.8" y="287.2" style="fill:#2D2D2D;" width="25.6" height="51.2"/>
<rect x="201.6" y="258.4" style="fill:#E81241;" width="25.6" height="80"/>
<rect x="243.2" y="225.6" style="fill:#2D2D2D;" width="25.6" height="112.8"/>
<rect x="284.8" y="192.8" style="fill:#E81241;" width="25.6" height="145.6"/>
<rect x="326.4" y="258.4" style="fill:#2D2D2D;" width="25.6" height="80"/>
<g>
</g>
<g>
</g>
<g>
</g>
<g>
</g>
<g>
</g>
<g>
</g>
<g>
</g>
<g>
</g>
<g>
</g>
<g>
</g>
<g>
</g>
<g>
</g>
<g>
</g>
<g>
</g>
<g>
</g>
</svg>
