<?xml version="1.0" encoding="iso-8859-1"?>
<!-- Generator: Adobe Illustrator 18.0.0, SVG Export Plug-In . SVG Version: 6.00 Build 0)  -->
<!DOCTYPE svg PUBLIC "-//W3C//DTD SVG 1.1//EN" "http://www.w3.org/Graphics/SVG/1.1/DTD/svg11.dtd">
<svg version="1.1" id="Capa_1" xmlns="http://www.w3.org/2000/svg" xmlns:xlink="http://www.w3.org/1999/xlink" x="0px" y="0px"
	 viewBox="0 0 493 493" style="enable-background:new 0 0 493 493;" xml:space="preserve">
<g>
	<path d="M386.919,0H74.279C58.036,0,44.757,13.609,44.757,29.851V58h34.324c22.67,0,41.043,18.33,41.043,41
		c0,22.672-18.373,41-41.043,41H44.757v66h34.324c22.67,0,41.043,18.329,41.043,41.001c0,22.67-18.373,40.999-41.043,40.999H44.757
		v65h34.324c22.67,0,41.043,18.828,41.043,41.5c0,22.672-18.373,41.5-41.043,41.5H44.757v27.576
		c0,16.243,13.279,29.424,29.521,29.424h312.64c16.24,0,29.838-13.181,29.838-29.424V29.851C416.757,13.609,403.159,0,386.919,0z
		 M355.092,384.418c0,0-16.531,8.926-22.039,11.905c-27.829,15.055-84.689-36.107-127.012-114.304
		c-42.313-78.204-54.041-153.794-26.207-168.866l22.022-11.921c6.519-3.536,14.664-1.114,18.183,5.411l34.906,64.503
		c3.526,6.518,1.105,14.663-5.413,18.183l-22.021,11.921l57.882,106.984l22.021-11.93c3.133-1.691,6.806-2.075,10.213-1.058
		c3.424,1.019,6.286,3.343,7.977,6.469l34.904,64.52C364.031,372.754,361.608,380.891,355.092,384.418z"/>
	<path id="XMLID_103_" d="M27.076,123.575h52.006c13.602,0,24.628-11.023,24.628-24.628c0-13.604-11.025-24.627-24.628-24.627
		H27.076c-13.605,0-24.628,11.023-24.628,24.627C2.448,112.552,13.471,123.575,27.076,123.575z"/>
	<path id="XMLID_102_" d="M27.076,271.342h52.006c13.602,0,24.628-11.024,24.628-24.627c0-13.605-11.025-24.628-24.628-24.628
		H27.076c-13.605,0-24.628,11.023-24.628,24.628C2.448,260.318,13.471,271.342,27.076,271.342z"/>
	<path id="XMLID_101_" d="M103.709,394.479c0-13.605-11.025-24.627-24.628-24.627H27.076c-13.605,0-24.628,11.023-24.628,24.627
		c0,13.605,11.023,24.628,24.628,24.628h52.006C92.684,419.107,103.709,408.084,103.709,394.479z"/>
	<path id="XMLID_100_" d="M471.566,137.941h-30.27v75.936h30.27c10.486,0,18.986-8.499,18.986-18.984v-37.967
		C490.552,146.44,482.053,137.941,471.566,137.941z"/>
	<path id="XMLID_99_" d="M471.566,249.279h-30.27v75.935h30.27c10.486,0,18.986-8.498,18.986-18.984v-37.967
		C490.552,257.777,482.053,249.279,471.566,249.279z"/>
	<path id="XMLID_98_" d="M471.566,360.617h-30.27v75.936h30.27c10.486,0,18.986-8.499,18.986-18.985v-37.966
		C490.552,369.115,482.053,360.617,471.566,360.617z"/>
</g>
<g>
</g>
<g>
</g>
<g>
</g>
<g>
</g>
<g>
</g>
<g>
</g>
<g>
</g>
<g>
</g>
<g>
</g>
<g>
</g>
<g>
</g>
<g>
</g>
<g>
</g>
<g>
</g>
<g>
</g>
</svg>
