<?xml version="1.0" encoding="iso-8859-1"?>
<!-- Generator: Adobe Illustrator 19.0.0, SVG Export Plug-In . SVG Version: 6.00 Build 0)  -->
<svg version="1.1" id="Layer_1" xmlns="http://www.w3.org/2000/svg" xmlns:xlink="http://www.w3.org/1999/xlink" x="0px" y="0px"
	 viewBox="0 0 512.001 512.001" style="enable-background:new 0 0 512.001 512.001;" xml:space="preserve">
<rect x="283.118" y="296.005" style="fill:#414042;" width="35.408" height="57.391"/>
<path style="fill:#2F2F30;" d="M305.783,296.004h-22.662v16.435l0,0c12.515,0,22.662,10.146,22.662,22.662v18.295h12.751v-40.956
	v-16.435L305.783,296.004L305.783,296.004z"/>
<path style="fill:#58595B;" d="M366.881,474.531L366.881,474.531c-22.044,0-39.915-17.871-39.915-39.915v-82.105h-52.278v82.105
	c0,22.044-17.871,39.915-39.915,39.915l0,0c-8.121,0-14.704,6.583-14.704,14.704v14.266h54.619h52.277h54.619v-14.266
	C381.585,481.114,375.002,474.531,366.881,474.531z"/>
<g>
	<path style="fill:#414042;" d="M366.88,474.531L366.88,474.531c-22.044,0-39.915-17.871-39.915-39.915v-64.55v-17.556h-12.751
		h-39.526v17.556h27.742c6.508,0,11.783,5.276,11.783,11.783v52.767c0,22.044,17.871,39.915,39.915,39.915l0,0
		c8.121,0,14.704,6.583,14.704,14.704v14.266h12.751v-14.266C381.584,481.114,375.001,474.531,366.88,474.531z"/>
	<circle style="fill:#414042;" cx="300.833" cy="381.397" r="8.501"/>
</g>
<path style="fill:#ED4850;" d="M376.889,296.887H224.253c-14.087,0-25.507-11.419-25.507-25.507l0,0
	c0-4.31,1.069-8.371,2.957-11.932c4.281-8.074,12.773-13.575,22.549-13.575h152.637c8.804,0,16.566,4.461,21.151,11.246
	c0.504,0.747,0.971,1.523,1.396,2.324c1.889,3.561,2.961,7.625,2.961,11.937l0,0C402.396,285.468,390.976,296.887,376.889,296.887z"
	/>
<path style="fill:#E0273D;" d="M376.889,273.03H224.253c-9.776,0-18.264-5.503-22.545-13.577c-1.888,3.56-2.962,7.619-2.962,11.929
	l0,0c0,14.087,11.419,25.507,25.507,25.507h152.637c14.086,0,25.507-11.419,25.507-25.507l0,0c0-4.31-1.073-8.369-2.962-11.929
	C395.153,267.527,386.665,273.03,376.889,273.03z"/>
<path style="fill:#E6E7E8;" d="M326.558,198.158h-173.57c-9.702,0-17.568-7.865-17.568-17.568l0,0
	c0-9.702,7.866-17.568,17.568-17.568h173.57c6.5,0,12.175,3.529,15.214,8.777c1.497,2.585,2.354,5.588,2.354,8.791l0,0
	C344.126,190.293,336.26,198.158,326.558,198.158z"/>
<path style="fill:#D1D3D4;" d="M326.558,180.59h-173.57c-6.499,0-12.159-3.537-15.198-8.784c-1.498,2.586-2.37,5.581-2.37,8.784
	c0,9.703,7.865,17.568,17.568,17.568h173.57c9.702,0,17.568-7.865,17.568-17.568c0-3.203-0.872-6.198-2.37-8.784
	C338.717,177.053,333.055,180.59,326.558,180.59z"/>
<path style="fill:#ED4850;" d="M138.667,224.078l-17.792-117.083c-1.458-9.592,5.137-18.551,14.729-20.008l0,0
	c3.542-0.538,6.998,0.022,10.021,1.425c5.164,2.397,9.067,7.254,9.987,13.304l17.792,117.083c1.203,7.914-3.075,15.395-9.995,18.59
	c-1.468,0.678-3.056,1.163-4.734,1.418l0,0C149.082,240.265,140.124,233.67,138.667,224.078z"/>
<path style="fill:#E0273D;" d="M153.414,224.078l-17.792-117.083c-1.203-7.912,3.082-15.382,10-18.578
	c-3.023-1.403-6.476-1.969-10.018-1.43l0,0c-9.592,1.458-16.186,10.416-14.729,20.008l17.792,117.083
	c1.458,9.592,10.416,16.186,20.008,14.729c1.68-0.255,3.261-0.753,4.729-1.43C158.24,234.98,154.333,230.127,153.414,224.078z"/>
<path style="fill:#ED4850;" d="M111.554,45.672l-2.577-16.958c-1.458-9.592,5.137-18.551,14.729-20.008l0,0
	c2.122-0.322,4.213-0.25,6.198,0.16c6.991,1.446,12.675,7.099,13.811,14.569l2.577,16.958c1.135,7.468-2.61,14.551-8.851,18.01
	c-1.776,0.984-3.753,1.675-5.878,1.998l0,0C121.97,61.859,113.012,55.265,111.554,45.672z"/>
<path style="fill:#E0273D;" d="M123.624,43.838l-2.577-16.957c-1.135-7.467,2.622-14.533,8.861-17.992
	c-1.988-0.413-4.077-0.506-6.202-0.182l0,0c-9.592,1.458-16.186,10.415-14.729,20.008l2.577,16.958
	c1.458,9.592,10.416,16.186,20.008,14.729l0,0c2.125-0.323,4.092-1.031,5.868-2.016C130.444,56.936,124.758,51.305,123.624,43.838z"
	/>
<path style="fill:#414042;" d="M403.226,512.001H198.43c-4.696,0-8.501-3.805-8.501-8.501s3.805-8.501,8.501-8.501h204.796
	c4.696,0,8.501,3.805,8.501,8.501S407.92,512.001,403.226,512.001z"/>
<circle cx="300.833" cy="381.397" r="8.501"/>
<path d="M403.226,494.999h-13.141v-5.766c0-12.795-10.409-23.205-23.205-23.205c-17.321,0-31.414-14.093-31.414-31.414V352.51
	c0-4.672-3.769-8.46-8.432-8.497v-38.625h22.628l12.76,37.035c0.955,2.77,3.27,4.854,6.126,5.513l31.936,7.367
	c0.643,0.148,1.285,0.22,1.918,0.22c3.87,0,7.368-2.661,8.275-6.592c1.056-4.575-1.798-9.139-6.372-10.193l-27.345-6.309
	l-9.317-27.04h9.244c18.751,0,34.007-15.256,34.007-34.007c0-18.751-15.256-34.007-34.007-34.007h-64.666v-30.716h14.333
	c14.375,0,26.069-11.694,26.069-26.069s-11.693-26.069-26.069-26.069H172.233l-8.218-54.082c-1.714-11.27-10.442-19.76-21.07-21.719
	l-1.915-12.606c9.565-5.028,15.379-15.73,13.667-26.999l-2.577-16.957c-1.046-6.884-4.711-12.949-10.319-17.077
	c-5.607-4.128-12.485-5.825-19.372-4.78c-14.209,2.163-24.014,15.481-21.855,29.691l2.576,16.958
	c1.713,11.27,10.443,19.767,21.071,21.724l1.915,12.61c-3.46,1.812-6.505,4.377-8.888,7.615c-4.129,5.607-5.826,12.487-4.78,19.371
	l17.792,117.083c1.046,6.884,4.711,12.949,10.319,17.077c3.293,2.423,7.025,3.998,10.936,4.682l1.494,3.722
	c6.489,16.177,21.201,27.099,38.254,28.805c3.701,14.772,17.085,25.747,32.987,25.747h50.368v38.625
	c-4.663,0.037-8.432,3.825-8.432,8.497v17.556h-27.017c-2.138,0-4.196,0.805-5.766,2.254l-29.469,27.202
	c-3.45,3.185-3.664,8.562-0.481,12.012c1.676,1.816,3.958,2.735,6.249,2.735c2.061,0,4.13-0.746,5.763-2.254l27.028-24.948h23.693
	v47.548c0,17.321-14.093,31.414-31.414,31.414c-12.795,0-23.205,10.409-23.205,23.205v5.766h-13.141
	c-4.696,0-8.501,3.805-8.501,8.501s3.805,8.501,8.501,8.501h21.642h161.513h21.642c4.696,0,8.501-3.805,8.501-8.501
	S407.92,494.999,403.226,494.999z M295.222,237.373h-70.969c-15.69,0-28.926,10.684-32.832,25.156
	c-2.079-0.321-4.093-0.863-6.017-1.602l-13.43-10.522c-1.262-1.81-2.335-3.783-3.184-5.901l-0.114-0.286
	c3.238-1.794,6.093-4.257,8.354-7.328c4.128-5.607,5.825-12.487,4.779-19.371l-1.651-10.863h115.065V237.373z M326.556,171.523
	c5,0,9.067,4.068,9.067,9.067s-4.068,9.067-9.067,9.067H177.574l-2.756-18.135H326.556z M119.958,44.396l-2.576-16.958
	c-0.751-4.942,2.66-9.575,7.602-10.327c2.393-0.369,4.786,0.227,6.737,1.663c1.951,1.436,3.225,3.545,3.588,5.94l2.577,16.957
	c0.751,4.943-2.659,9.576-7.602,10.327C125.348,52.74,120.709,49.337,119.958,44.396z M129.278,105.717
	c-0.364-2.394,0.226-4.788,1.662-6.737c1.437-1.951,3.545-3.225,5.94-3.588c0.461-0.071,0.923-0.105,1.382-0.105
	c1.918,0,3.781,0.609,5.357,1.768c1.951,1.436,3.225,3.545,3.588,5.939l17.792,117.083c0.364,2.394-0.226,4.788-1.663,6.738
	c-1.436,1.951-3.544,3.225-5.939,3.588c-2.396,0.365-4.788-0.228-6.737-1.663c-1.951-1.436-3.225-3.545-3.588-5.94L129.278,105.717z
	 M207.247,271.381c0-9.377,7.628-17.006,17.006-17.006h152.637c9.377,0,17.006,7.628,17.006,17.006
	c0,9.378-7.628,17.006-17.006,17.006h-58.354h-35.413h-58.869C214.875,288.386,207.247,280.759,207.247,271.381z M310.033,305.388
	v38.621h-18.411v-38.621H310.033z M228.572,494.999v-5.766c0-3.421,2.783-6.203,6.203-6.203c26.697,0,48.415-21.719,48.415-48.415
	v-73.604h35.276v73.604c0,26.697,21.719,48.415,48.415,48.415c3.421,0,6.203,2.783,6.203,6.203v5.766H228.572z"/>
<g>
</g>
<g>
</g>
<g>
</g>
<g>
</g>
<g>
</g>
<g>
</g>
<g>
</g>
<g>
</g>
<g>
</g>
<g>
</g>
<g>
</g>
<g>
</g>
<g>
</g>
<g>
</g>
<g>
</g>
</svg>
