<?xml version="1.0" encoding="iso-8859-1"?>
<!-- Generator: Adobe Illustrator 19.0.0, SVG Export Plug-In . SVG Version: 6.00 Build 0)  -->
<svg version="1.1" id="Layer_1" xmlns="http://www.w3.org/2000/svg" xmlns:xlink="http://www.w3.org/1999/xlink" x="0px" y="0px"
	 viewBox="0 0 512.002 512.002" style="enable-background:new 0 0 512.002 512.002;" xml:space="preserve">
<path style="fill:#E6E6E6;" d="M478.042,345.685c-21.541-28.391-61.486-36.225-92.138-18.047
	c-7.807,4.631-14.339,10.487-19.573,17.14L180.735,80.541l-0.002,0.011c-9.82,41.628-1.374,85.47,23.21,120.47l159.462,227.033
	c22.563,32.125,67.116,40.671,99.178,18.017C495.073,423.116,502.319,377.682,478.042,345.685z M445.244,421.736
	c-18.403,12.926-43.801,8.486-56.727-9.917c-12.926-18.403-8.486-43.801,9.917-56.727c18.403-12.926,43.801-8.486,56.727,9.917
	C468.087,383.412,463.647,408.81,445.244,421.736z"/>
<g>
	<path style="fill:#FC583D;" d="M478.064,345.653c-21.53-28.4-61.486-36.235-92.132-18.05c-7.805,4.624-14.346,10.489-19.579,17.143
		l-23.937-34.081l-30.943,43.377l51.96,73.978c22.566,32.128,67.114,40.669,99.171,18.018
		C495.104,423.074,502.342,377.644,478.064,345.653z M445.271,421.699c-18.404,12.927-43.807,8.486-56.734-9.918
		c-12.927-18.404-8.488-43.795,9.916-56.722c18.404-12.927,43.807-8.486,56.734,9.918
		C468.114,383.382,463.675,408.773,445.271,421.699z"/>
	<path style="fill:#FC583D;" d="M279.498,308.593l-9.106,52.089c-6.008-3.018-12.557-5.232-19.523-6.45
		c-38.403-6.714-74.992,18.984-81.705,57.388c-6.716,38.416,18.984,74.992,57.388,81.705c38.416,6.716,74.989-18.972,81.705-57.388
		l12.094-69.181L279.498,308.593z M231.698,463.893c-22.154-3.874-36.972-24.971-33.1-47.125
		c3.873-22.154,24.971-36.972,47.125-33.1c22.154,3.874,36.972,24.971,33.1,47.125C274.949,452.947,253.852,467.767,231.698,463.893
		z"/>
</g>
<path style="fill:#CCCCCC;" d="M291.739,238.575l34.26-195.968l0,0c26.596,33.502,37.598,76.778,30.232,118.915l-23.64,135.217"/>
<path style="fill:#49DB95;" d="M160.212,318.905c-1.314-7.308-7.673-12.626-15.098-12.626h-42.697
	c-15.479,0-28.768-8.952-31.606-21.3c-17.034-74.119-17.034-150.159,0-224.278c2.838-12.348,16.127-21.3,31.606-21.3h42.697
	c7.426,0,13.791-5.319,15.099-12.628c0.019-0.106,0.038-0.213,0.057-0.32c1.694-9.408-5.541-18.054-15.1-18.054H65.153
	c-15.674,0-29.328,10.548-33.434,25.674c-26.082,96.087-3.405,366.692,4.104,446.87c1.203,12.844,11.981,22.659,24.881,22.659l0,0
	c13.099,0,23.976-10.114,24.925-23.178l8.885-122.154c0.86-11.829,10.708-20.987,22.568-20.987h28.1
	c9.553,0,16.779-8.642,15.09-18.044L160.212,318.905z"/>
<path d="M457.422,366.897c-4.371,1.551-6.657,6.353-5.105,10.725c4.831,13.613-0.062,28.927-11.899,37.242
	c-14.585,10.242-34.783,6.713-45.027-7.871c-4.962-7.065-6.876-15.64-5.39-24.145c1.486-8.505,6.197-15.921,13.261-20.884
	c10.682-7.502,24.728-7.865,35.784-0.924c3.929,2.467,9.112,1.281,11.579-2.647c2.466-3.928,1.281-9.112-2.647-11.579
	c-16.799-10.547-38.14-9.996-54.37,1.404c-22.164,15.567-27.531,46.263-11.963,68.427c9.55,13.597,24.79,20.872,40.265,20.87
	c9.75,0,19.596-2.89,28.163-8.908c17.988-12.634,25.42-35.911,18.075-56.606C466.594,367.631,461.791,365.344,457.422,366.897z"/>
<path d="M484.733,340.609c-11.666-15.376-28.617-25.908-47.728-29.653c-19.117-3.747-38.786-0.386-55.386,9.458
	c-5.255,3.118-10.086,6.784-14.442,10.958l-66.567-94.773L330.725,64.35c16.764,28.675,23.023,62.608,17.233,95.724l-17.121,97.931
	c-0.798,4.569,2.258,8.921,6.828,9.719c0.489,0.086,0.977,0.128,1.456,0.128c4.004,0,7.55-2.875,8.263-6.954l17.121-97.931
	c7.773-44.459-3.865-90.232-31.927-125.582c-2.056-2.59-5.438-3.734-8.647-2.917c-3.205,0.815-5.634,3.435-6.204,6.693
	l-30.77,175.999l-46.94-66.829c-2.666-3.796-7.905-4.712-11.7-2.046c-3.796,2.665-4.712,7.905-2.046,11.7l105.833,150.678
	l-20.606,28.88L210.813,196.196c-19.313-27.496-28.079-60.848-25.103-93.958l24.156,34.391c2.666,3.796,7.905,4.711,11.7,2.046
	c3.796-2.665,4.712-7.904,2.046-11.7l-36.005-51.261c-1.9-2.707-5.215-4.039-8.463-3.414c-3.247,0.626-5.828,3.105-6.587,6.325
	c-10.362,43.924-1.428,90.295,24.512,127.226l73.556,104.724l-6.701,38.334c-3.781-1.272-7.66-2.259-11.61-2.949
	c-20.782-3.633-41.739,1.046-59.009,13.176c-17.269,12.13-28.781,30.256-32.415,51.04c-3.635,20.787,1.045,41.746,13.175,59.015
	c12.129,17.266,30.256,28.776,51.041,32.409c4.598,0.804,9.204,1.202,13.777,1.202c16.102,0,31.789-4.926,45.237-14.371
	c17.266-12.128,28.776-30.256,32.411-51.045l8.603-49.206l31.401,44.706c12.419,17.682,30.974,29.45,52.249,33.139
	c4.588,0.795,9.177,1.189,13.728,1.189c16.059,0,31.637-4.895,44.919-14.278c17.646-12.469,29.184-31.1,32.484-52.463
	C503.213,379.118,497.822,357.858,484.733,340.609z M299.982,434.491c-2.861,16.37-11.924,30.643-25.519,40.192
	c-13.595,9.548-30.095,13.232-46.466,10.368c-16.365-2.861-30.637-11.924-40.187-25.519c-9.551-13.596-13.235-30.098-10.373-46.466
	c2.861-16.364,11.925-30.635,25.523-40.186c13.598-9.551,30.1-13.234,46.463-10.374c5.994,1.048,11.782,2.96,17.199,5.681
	c2.375,1.193,5.171,1.191,7.545-0.001c2.373-1.194,4.041-3.44,4.499-6.057l5.615-32.114l27.198,38.724L299.982,434.491z
	 M483.312,397.904c-2.599,16.821-11.683,31.492-25.577,41.308c-13.373,9.449-29.74,13.092-46.084,10.259
	c-16.844-2.921-31.539-12.241-41.373-26.243l-43.039-61.277c-0.01-0.015-0.02-0.029-0.031-0.044l-5.471-7.791l20.606-28.88
	l17.117,24.369c1.526,2.174,3.99,3.497,6.645,3.569c2.665,0.082,5.186-1.116,6.829-3.203c4.771-6.064,10.577-11.147,17.258-15.109
	c13.046-7.738,28.528-10.375,43.587-7.422c15.061,2.951,28.406,11.234,37.577,23.322
	C481.663,364.351,485.91,381.093,483.312,397.904z"/>
<path d="M247.17,375.396c-12.926-2.26-25.955,0.649-36.691,8.19c-10.737,7.541-17.894,18.812-20.154,31.736
	c-4.664,26.68,13.248,52.181,39.926,56.845c2.858,0.499,5.721,0.747,8.563,0.747c10.011,0,19.765-3.064,28.128-8.936
	c10.737-7.541,17.894-18.812,20.154-31.736C291.76,405.56,273.848,380.061,247.17,375.396z M270.549,429.348
	c-3.069,17.556-19.843,29.348-37.406,26.272c-17.556-3.069-29.342-19.849-26.272-37.406l0,0
	c3.069-17.556,19.846-29.342,37.406-26.272C261.833,395.012,273.619,411.792,270.549,429.348z"/>
<path d="M298.178,304.487c4.091,6.214,13.974,4.041,15.244-3.226c0.616-3.524-1.143-7.161-4.309-8.84
	c-3.164-1.677-7.148-1.156-9.746,1.321C296.435,296.537,295.958,301.117,298.178,304.487z"/>
<path d="M163.386,337.172c4.521-5.407,6.399-12.485,5.152-19.418l-0.06-0.336c-2.036-11.321-11.862-19.539-23.364-19.539h-42.697
	c-7.754,0-14.878-2.936-19.262-7.458h54.866c4.638,0,8.399-3.76,8.399-8.399c0-4.638-3.76-8.399-8.399-8.399H76.927
	c-1.006-4.796-1.94-9.597-2.801-14.401h59.136c4.638,0,8.399-3.76,8.399-8.399c0-4.638-3.76-8.399-8.399-8.399H71.399
	c-0.691-4.794-1.315-9.59-1.863-14.39h61.822c4.638,0,8.399-3.76,8.399-8.399c0-4.638-3.76-8.399-8.399-8.399H67.922
	c-0.381-4.798-0.69-9.599-0.928-14.401h64.364c4.638,0,8.399-3.76,8.399-8.399c0-4.638-3.76-8.399-8.399-8.399H66.442
	c-0.072-4.801-0.072-9.6,0-14.401h65.544c4.638,0,8.399-3.76,8.399-8.399c0-4.638-3.76-8.399-8.399-8.399H66.994
	c0.237-4.797,0.546-9.595,0.927-14.39h65.341c4.638,0,8.399-3.76,8.399-8.399s-3.76-8.399-8.399-8.399H69.535
	c0.549-4.803,1.172-9.603,1.865-14.401h63.845c4.638,0,8.399-3.76,8.399-8.399s-3.76-8.399-8.399-8.399H74.126
	c0.862-4.804,1.795-9.605,2.802-14.401h61.094c4.638,0,8.399-3.76,8.399-8.399s-3.76-8.399-8.399-8.399H83.154
	c4.384-4.522,11.51-7.459,19.263-7.459h42.697c11.512,0,21.338-8.221,23.366-19.55l0.055-0.307
	c1.25-6.936-0.627-14.018-5.149-19.427C158.863,3.103,152.224,0,145.17,0H65.153C45.79,0,28.708,13.106,23.613,31.873
	c-9.545,35.168-18.532,116.992-7.131,307.083c0.278,4.629,4.261,8.168,8.886,7.88c4.63-0.278,8.159-4.256,7.881-8.887
	c-8.915-148.663-6.642-252.981,6.576-301.676c3.112-11.466,13.529-19.475,25.328-19.475h80.017c2.824,0,4.551,1.561,5.329,2.492
	c0.776,0.929,2.004,2.901,1.485,5.785l-0.039,0.219c-0.592,3.309-3.465,5.71-6.831,5.71h-42.697
	c-19.353,0-36.088,11.699-39.791,27.818c-17.388,75.659-17.388,152.382,0,228.04c3.703,16.119,20.438,27.818,39.791,27.818h42.697
	c3.363,0,6.236,2.403,6.831,5.709l0.06,0.337c0.499,2.775-0.728,4.746-1.505,5.673c-0.776,0.928-2.499,2.486-5.318,2.486h-28.1
	c-16.178,0-29.771,12.639-30.945,28.776l-8.884,122.155c-0.627,8.629-7.897,15.389-16.549,15.389
	c-8.615,0-15.717-6.467-16.52-15.043c-2.356-25.154-5.829-64.957-8.991-111.731c-0.312-4.628-4.331-8.13-8.946-7.813
	c-4.628,0.312-8.125,4.318-7.813,8.946c3.175,46.954,6.661,86.912,9.026,112.164c1.616,17.26,15.908,30.275,33.244,30.275
	c17.411,0,32.038-13.603,33.303-30.968l8.884-122.154c0.538-7.4,6.772-13.197,14.192-13.197h28.1
	C152.23,345.68,158.866,342.579,163.386,337.172z"/>
<g>
</g>
<g>
</g>
<g>
</g>
<g>
</g>
<g>
</g>
<g>
</g>
<g>
</g>
<g>
</g>
<g>
</g>
<g>
</g>
<g>
</g>
<g>
</g>
<g>
</g>
<g>
</g>
<g>
</g>
</svg>
