<?xml version="1.0" encoding="iso-8859-1"?>
<!-- Generator: Adobe Illustrator 19.0.0, SVG Export Plug-In . SVG Version: 6.00 Build 0)  -->
<svg version="1.1" id="Layer_1" xmlns="http://www.w3.org/2000/svg" xmlns:xlink="http://www.w3.org/1999/xlink" x="0px" y="0px"
	 viewBox="0 0 512 512" style="enable-background:new 0 0 512 512;" xml:space="preserve">
<g>
	<g>
		<path d="M479.68,137.05l28.217-28.219l-24.185-24.185l-28.217,28.219l-16.124-16.124l28.218-28.218l-24.185-24.184l-28.218,28.218
			l-16.125-16.125l28.217-28.216L403.094,4.031l-28.217,28.216L342.63,0L225.734,116.895c-8.62,8.619-13.784,19.767-14.823,31.769
			C184.664,178.358,83.158,293.881,54.298,337.169c-12.737,19.106-19.906,39.474-20.734,58.902
			c-0.723,16.991,3.442,32.665,12.122,46.133L0.074,487.815L24.259,512l45.651-45.65c12.423,7.956,26.71,12.092,42.176,12.092
			c1.248,0,2.505-0.026,3.767-0.08c19.426-0.828,39.793-7.996,58.901-20.733c43.288-28.857,158.807-130.361,188.503-156.613
			c12.004-1.038,23.154-6.201,31.773-14.822l116.895-116.898L479.68,137.05z M155.783,429.171
			c-10.881,7.252-48.457,28.844-75.164,2.138c-26.707-26.71-5.116-64.285,2.138-75.166
			c23.77-35.653,103.206-127.224,140.344-169.551c0.841,0.977,1.711,1.937,2.633,2.858l96.743,96.746
			c0.921,0.921,1.879,1.789,2.856,2.631C283.008,325.965,191.441,405.398,155.783,429.171z M370.848,262.011
			c-3.231,3.229-7.526,5.006-12.094,5.006c-4.568,0-8.863-1.78-12.093-5.009l-96.742-96.746c-3.23-3.229-5.009-7.524-5.009-12.09
			s1.78-8.861,5.01-12.091l92.711-92.711l8.061,8.061l-28.214,28.214l24.185,24.185l28.214-28.214l16.126,16.126l-28.217,28.216
			l24.185,24.185l28.217-28.216l16.124,16.124l-28.214,28.217l24.185,24.185l28.214-28.217l8.061,8.061L370.848,262.011z"/>
	</g>
</g>
<g>
	<g>
		<path d="M346.656,165.263c-4.306-4.304-10.03-6.674-16.119-6.674c-6.087,0-11.81,2.369-16.128,6.681
			c-8.887,8.892-8.886,23.356,0.003,32.245c4.305,4.306,10.031,6.677,16.121,6.677c6.083,0,11.804-2.366,16.129-6.68
			c4.31-4.311,6.68-10.044,6.675-16.141C353.334,175.277,350.956,169.554,346.656,165.263z"/>
	</g>
</g>
<g>
</g>
<g>
</g>
<g>
</g>
<g>
</g>
<g>
</g>
<g>
</g>
<g>
</g>
<g>
</g>
<g>
</g>
<g>
</g>
<g>
</g>
<g>
</g>
<g>
</g>
<g>
</g>
<g>
</g>
</svg>
